<svg xmlns="http://www.w3.org/2000/svg"><symbol viewBox="0 0 60.2 64" id="bane"><defs><style>.ba8814b6-150f-4d3f-a86c-7036e4a5fd32 { fill: rgb(155, 214, 206); }.b9958adc-4f0c-4f97-84e6-323fda6174c7 { fill: rgb(44, 88, 167); }</style></defs><title>bane</title><g id="a1c15226-1bd5-4742-b1b6-31415196e18a" data-name="BG"><rect class="ba8814b6-150f-4d3f-a86c-7036e4a5fd32" width="64" height="64" rx="7"/></g><g id="a70ffedd-127e-487e-aaa5-eae76937bb3c" data-name="Layer 2"><path class="b9958adc-4f0c-4f97-84e6-323fda6174c7" d="M11.4,49.5,6.5,36.4s7,5.2,9.6,4.2,1.3-12.5,1.3-12.5,5.6,8.2,9,5.7S32,17.1,32,17.1V49.5Z"/><path class="b9958adc-4f0c-4f97-84e6-323fda6174c7" d="M52.6,49.6l4.9-13.2s-7,5.2-9.6,4.2-1.3-12.5-1.3-12.5-5.6,8.2-9,5.7S32,17.1,32,17.1V49.5Z"/><circle class="b9958adc-4f0c-4f97-84e6-323fda6174c7" cx="32" cy="17.1" r="2.7"/><circle class="b9958adc-4f0c-4f97-84e6-323fda6174c7" cx="17.4" cy="28" r="2.7"/><circle class="b9958adc-4f0c-4f97-84e6-323fda6174c7" cx="6.5" cy="36.4" r="2.7"/><circle class="b9958adc-4f0c-4f97-84e6-323fda6174c7" cx="46.6" cy="28.1" r="2.7"/><circle class="b9958adc-4f0c-4f97-84e6-323fda6174c7" cx="57.5" cy="36.3" r="2.7"/></g></symbol><symbol viewBox="0 0 57 64" id="dragauth"><defs><style>.bf6ae075-c5e3-4116-9b6b-acb1c17e65d5 { fill: rgb(155, 214, 206); }.b9aadc19-6826-4f45-9026-3874ee9eb3b6 { fill: none; stroke: rgb(192, 118, 177); stroke-linecap: round; stroke-miterlimit: 10; stroke-width: 5px; }</style></defs><title>dragauth</title><g id="b4e683a5-7632-46d2-abaf-c639d433114f" data-name="BG"><rect class="bf6ae075-c5e3-4116-9b6b-acb1c17e65d5" width="64" height="64" rx="7"/></g><g id="a17ccf81-c739-4a71-8984-580abf729626" data-name="Layer 2"><path class="b9aadc19-6826-4f45-9026-3874ee9eb3b6" d="M33.2,15.8l15.9,16L32.7,48.2"/><path class="b9aadc19-6826-4f45-9026-3874ee9eb3b6" d="M15.3,15.8l16,16L14.9,48.2"/></g></symbol><symbol viewBox="0 0 60.942997 64" id="dragcomplete"><defs><style>.ab2168d7-3021-427f-bb5c-ca177e8e2671 { fill: rgb(155, 214, 206); }.ad0a89fe-d20f-48b2-82e2-5e2e65c88c71 { fill: rgb(192, 118, 177); }.ba82ee37-a2c1-465e-b397-da51e4be6455 { fill: none; stroke: rgb(44, 88, 167); stroke-miterlimit: 10; }</style></defs><title>dragcomplete</title><g id="b124bba5-90bf-4b75-b196-2b9108ac3e8f" data-name="BG"><rect class="ab2168d7-3021-427f-bb5c-ca177e8e2671" width="64" height="64" rx="7"/></g><g id="b7639a7c-4304-4563-9036-d4cec7b2cf43" data-name="Layer 2"><circle class="ad0a89fe-d20f-48b2-82e2-5e2e65c88c71" cx="32" cy="32" r="4.3"/><ellipse class="ba82ee37-a2c1-465e-b397-da51e4be6455" cx="32" cy="32" rx="28.8" ry="7.7" transform="translate(-11.7 20.3) rotate(-30)"/><ellipse class="ba82ee37-a2c1-465e-b397-da51e4be6455" cx="31.9" cy="32.1" rx="7.7" ry="28.8" transform="matrix(0.5, -0.87, 0.87, 0.5, -11.84, 43.72)"/><ellipse class="ba82ee37-a2c1-465e-b397-da51e4be6455" cx="31.9" cy="32.1" rx="7.7" ry="28.8"/></g></symbol><symbol viewBox="0 0 60.2 64" id="dragperfect"><defs><style>.b8d17616-538d-47de-8471-087c5e84b35e { fill: rgb(155, 214, 206); }.af80a243-e327-4977-9b15-3981e3f87aa7 { fill: rgb(192, 118, 177); }</style></defs><title>dragperfect</title><g id="f82cc8e5-582b-4957-892a-3da39e02a80f" data-name="BG"><rect class="b8d17616-538d-47de-8471-087c5e84b35e" width="64" height="64" rx="7"/></g><g id="f20f6a76-4999-48c7-b21c-cc3da4c3cfa0" data-name="Layer 2"><path class="af80a243-e327-4977-9b15-3981e3f87aa7" d="M12.6,49.9H32V18s-1.7,15.2-5.9,16.2-7.8-5.3-7.8-5.3.8,6.7-2.4,8-8.9,0-8.9,0Z"/><path class="af80a243-e327-4977-9b15-3981e3f87aa7" d="M51.4,49.9H32V18s1.7,15.2,5.9,16.2,7.8-5.3,7.8-5.3-.8,6.7,2.4,8,8.9,0,8.9,0Z"/><circle class="af80a243-e327-4977-9b15-3981e3f87aa7" cx="17.8" cy="26.9" r="2.3"/><circle class="af80a243-e327-4977-9b15-3981e3f87aa7" cx="32" cy="16.4" r="2.3"/><circle class="af80a243-e327-4977-9b15-3981e3f87aa7" cx="46.2" cy="26.9" r="2.3"/><circle class="af80a243-e327-4977-9b15-3981e3f87aa7" cx="6.1" cy="35.4" r="2.3"/><circle class="af80a243-e327-4977-9b15-3981e3f87aa7" cx="57.9" cy="35.4" r="2.3"/></g></symbol><symbol viewBox="0 0 60.942997 64" id="elementalist"><defs><style>.af50e3eb-b500-45bc-b35a-fd16d375133f { fill: rgb(155, 214, 207); }.bc3b7891-c991-48ca-9867-b48f2ffa3d51 { fill: rgb(192, 118, 177); }.bac5a458-da98-4aa3-95a5-a1fd0420ba4a { fill: none; stroke: rgb(42, 87, 167); stroke-miterlimit: 10; }</style></defs><title>elementalist</title><g id="a31d3abb-f25b-4906-a722-e42055474569" data-name="BG"><rect class="af50e3eb-b500-45bc-b35a-fd16d375133f" width="64" height="64" rx="7"/></g><g id="b0cc7bc5-259d-437f-8f52-6916e43e8497" data-name="Layer 2"><circle class="bc3b7891-c991-48ca-9867-b48f2ffa3d51" cx="32" cy="32" r="4.3"/><ellipse class="bac5a458-da98-4aa3-95a5-a1fd0420ba4a" cx="32" cy="32" rx="28.8" ry="7.7" transform="translate(-11.7 20.3) rotate(-30)"/><ellipse class="bac5a458-da98-4aa3-95a5-a1fd0420ba4a" cx="31.9" cy="32.1" rx="7.7" ry="28.8" transform="matrix(0.5, -0.87, 0.87, 0.5, -11.84, 43.72)"/><ellipse class="bac5a458-da98-4aa3-95a5-a1fd0420ba4a" cx="31.9" cy="32.1" rx="7.7" ry="28.8"/></g></symbol><symbol viewBox="0 0 57.7 64" id="keyboard"><defs><style>.a85a9bab-60ee-4b8f-b441-acb638020aa7 { fill: rgb(155, 214, 206); }.f0e4bc81-1b8e-403e-a468-ca6f5222520c { fill: rgb(44, 88, 167); }.ba303252-7b99-48c1-ad35-178eca66a3c7 { fill: rgb(192, 118, 177); }.b231d7b7-7558-4ed3-9cbf-12898a5d439c { fill: rgb(39, 87, 114); }.a8c6a213-648e-4c4e-b947-c5fd3d12fea1 { fill: none; stroke: rgb(160, 29, 33); stroke-linecap: round; stroke-miterlimit: 10; stroke-width: 3px; }</style></defs><title>keyboard</title><g id="b9aaa7e2-4dd0-4696-af64-50e1161415f0" data-name="BG"><rect class="a85a9bab-60ee-4b8f-b441-acb638020aa7" width="64" height="64" rx="7"/></g><g id="f9a19cca-68e7-4268-9605-57f8d263b0d1" data-name="Layer 2"><rect class="f0e4bc81-1b8e-403e-a468-ca6f5222520c" x="6.3" y="18.6" width="51.5" height="26.76" rx="2.9"/><rect class="ba303252-7b99-48c1-ad35-178eca66a3c7" x="9.5" y="34.5" width="6.9" height="6.9" rx="0.8"/><rect class="ba303252-7b99-48c1-ad35-178eca66a3c7" x="9.5" y="22.6" width="6.9" height="6.9" rx="0.8"/><rect class="ba303252-7b99-48c1-ad35-178eca66a3c7" x="18.9" y="34.5" width="6.9" height="6.9" rx="0.8"/><rect class="ba303252-7b99-48c1-ad35-178eca66a3c7" x="18.9" y="22.6" width="6.9" height="6.9" rx="0.8"/><rect class="ba303252-7b99-48c1-ad35-178eca66a3c7" x="28.3" y="34.5" width="6.9" height="6.9" rx="0.8"/><rect class="ba303252-7b99-48c1-ad35-178eca66a3c7" x="28.3" y="22.6" width="6.9" height="6.9" rx="0.8"/><rect class="ba303252-7b99-48c1-ad35-178eca66a3c7" x="37.7" y="34.5" width="6.9" height="6.9" rx="0.8"/><rect class="ba303252-7b99-48c1-ad35-178eca66a3c7" x="37.7" y="22.6" width="6.9" height="6.9" rx="0.8"/><rect class="ba303252-7b99-48c1-ad35-178eca66a3c7" x="47" y="34.5" width="6.9" height="6.9" rx="0.8"/><rect class="ba303252-7b99-48c1-ad35-178eca66a3c7" x="47" y="22.6" width="6.9" height="6.9" rx="0.8"/><path class="b231d7b7-7558-4ed3-9cbf-12898a5d439c" d="M0,0"/><line class="a8c6a213-648e-4c4e-b947-c5fd3d12fea1" x1="57.7" y1="6.3" x2="6.3" y2="57.7"/><line class="a8c6a213-648e-4c4e-b947-c5fd3d12fea1" x1="6.3" y1="6.3" x2="57.7" y2="57.7"/></g></symbol><symbol viewBox="0 0 57 64" id="nameauth"><defs><style>.ad0202ae-191b-409d-a104-ae95c8d89df9 { fill: rgb(155, 214, 206); }.baaecf23-498c-471d-9dda-39cdb4d85db1, .bf1c4ca2-0e99-4235-adcb-7a6d4a42295a { fill: none; stroke: rgb(54, 73, 156); stroke-miterlimit: 10; }.baaecf23-498c-471d-9dda-39cdb4d85db1 { stroke-width: 2px; }.e105a7df-7d41-49e8-ba12-72f1ce31c39c { fill: rgb(54, 73, 156); }.bf1c4ca2-0e99-4235-adcb-7a6d4a42295a { stroke-linecap: round; }</style></defs><title>nameauth</title><g id="b9adbb12-8659-4d54-be7f-fa2cb143bc69" data-name="BG"><rect class="ad0202ae-191b-409d-a104-ae95c8d89df9" width="64" height="64" rx="7"/></g><g id="bc4e9a98-4721-4f42-a0dd-f8e03eb02726" data-name="Layer 2"><g id="aa226787-1bb7-4cfd-8a29-af7a401fee87" data-name="a7309d41-5f99-43bf-bf9c-15d8a61fa6c1"><circle class="baaecf23-498c-471d-9dda-39cdb4d85db1" cx="32" cy="35.8" r="19.1"/><path class="e105a7df-7d41-49e8-ba12-72f1ce31c39c" d="M26.7,15.6c2.3-.6,9.4-.5,11.4.3,0-3.3.2-6.9.2-6.9H26.7Z"/><line class="bf1c4ca2-0e99-4235-adcb-7a6d4a42295a" x1="32" y1="19" x2="32" y2="25.6"/><line class="bf1c4ca2-0e99-4235-adcb-7a6d4a42295a" x1="48.9" y1="35.8" x2="42.2" y2="35.8"/><line class="bf1c4ca2-0e99-4235-adcb-7a6d4a42295a" x1="32" y1="52.8" x2="32" y2="46"/><line class="bf1c4ca2-0e99-4235-adcb-7a6d4a42295a" x1="15.1" y1="35.8" x2="21.8" y2="35.8"/><line class="bf1c4ca2-0e99-4235-adcb-7a6d4a42295a" x1="20.1" y1="23.9" x2="22.6" y2="26.4"/><line class="bf1c4ca2-0e99-4235-adcb-7a6d4a42295a" x1="43.9" y1="23.9" x2="41.4" y2="26.4"/><line class="bf1c4ca2-0e99-4235-adcb-7a6d4a42295a" x1="43.9" y1="47.8" x2="41.4" y2="45.3"/><line class="bf1c4ca2-0e99-4235-adcb-7a6d4a42295a" x1="20.1" y1="47.8" x2="22.6" y2="45.3"/><rect class="bf1c4ca2-0e99-4235-adcb-7a6d4a42295a" x="38.1" y="11.1" width="2.2" height="3.24"/><circle class="e105a7df-7d41-49e8-ba12-72f1ce31c39c" cx="32" cy="35.8" r="2"/></g></g></symbol><symbol viewBox="0 0 60.942997 64" id="namecomplete"><defs><style>.ad4db4c9-d31a-4f37-9bb7-b1ad5e39c2ae { fill: rgb(155, 214, 206); }.ea4f3833-4be8-4f31-aeac-1059ae96be08 { fill: rgb(192, 118, 177); }.bee005a2-0a55-486e-8056-ebd533874400 { fill: none; stroke: rgb(44, 88, 167); stroke-miterlimit: 10; }</style></defs><title>namecomplete</title><g id="aa6c4bcb-14b2-4e86-abc6-36e88f27a9a4" data-name="BG"><rect class="ad4db4c9-d31a-4f37-9bb7-b1ad5e39c2ae" width="64" height="64" rx="7"/></g><g id="a7226904-2547-47d9-a650-10995b11ca3f" data-name="Layer 2"><circle class="ea4f3833-4be8-4f31-aeac-1059ae96be08" cx="32" cy="32" r="4.3"/><ellipse class="bee005a2-0a55-486e-8056-ebd533874400" cx="32" cy="32" rx="28.8" ry="7.7" transform="translate(-11.7 20.3) rotate(-30)"/><ellipse class="bee005a2-0a55-486e-8056-ebd533874400" cx="31.9" cy="32.1" rx="7.7" ry="28.8" transform="matrix(0.5, -0.87, 0.87, 0.5, -11.84, 43.72)"/><ellipse class="bee005a2-0a55-486e-8056-ebd533874400" cx="31.9" cy="32.1" rx="7.7" ry="28.8"/></g></symbol><symbol viewBox="0 0 57 64" id="namehint"><defs><style>.bf39dc84-b292-4477-b67d-31163262a451 { fill: rgb(155, 214, 207); }.be2f8bc9-5de2-4775-9f55-24a37f4898eb { fill: rgb(42, 87, 167); }.a9d2c8b3-a7c9-4bed-9370-29e76c0cd1d6, .abd9ce4d-81f1-4779-a8fb-3439c80e238f { fill: none; stroke-miterlimit: 10; }.a9d2c8b3-a7c9-4bed-9370-29e76c0cd1d6 { stroke: rgb(42, 87, 167); }.bc9dce39-b5d3-4779-80b4-f6a0c6ce411a { opacity: 0.69; }.abd9ce4d-81f1-4779-a8fb-3439c80e238f { stroke: rgb(221, 0, 0); stroke-linecap: round; stroke-width: 2px; }</style></defs><title>namehint</title><g id="e42df670-96d6-4346-80e7-e74b358f515e" data-name="ae3c39f2-e719-400a-bed8-c20afb828aee"><rect class="bf39dc84-b292-4477-b67d-31163262a451" width="64" height="64" rx="7"/></g><path class="be2f8bc9-5de2-4775-9f55-24a37f4898eb" d="M22,18.5v27h3.5V34.3A1.5,1.5,0,0,1,27,32.8H37.1a1.5,1.5,0,0,1,1.5,1.5V45.5H42v-27H38.6v9.8a1.5,1.5,0,0,1-1.5,1.5H26.9a1.5,1.5,0,0,1-1.5-1.5V18.5Z"/><circle class="a9d2c8b3-a7c9-4bed-9370-29e76c0cd1d6" cx="32" cy="32" r="20.5"/><g class="bc9dce39-b5d3-4779-80b4-f6a0c6ce411a"><line class="abd9ce4d-81f1-4779-a8fb-3439c80e238f" x1="8.9" y1="8.9" x2="55.1" y2="55.1"/><line class="abd9ce4d-81f1-4779-a8fb-3439c80e238f" x1="55.1" y1="8.9" x2="8.9" y2="55.1"/></g></symbol><symbol viewBox="0 0 57 64" id="namemistake"><defs><style>.fc36289f-79cd-4307-9ced-c7a6affb74f4 { fill: rgb(155, 214, 206); }.bb0f4f97-59c3-45b4-bad8-598fccff89dc { fill: rgb(44, 88, 167); }</style></defs><title>namemistake</title><g id="bbc28b8d-7a8d-4ecd-9723-51686c98dbc1" data-name="BG"><rect class="fc36289f-79cd-4307-9ced-c7a6affb74f4" width="64" height="64" rx="7"/></g><g id="bf5ac809-342d-4177-a206-bd08c85b0bc5" data-name="Layer 2"><path class="bb0f4f97-59c3-45b4-bad8-598fccff89dc" d="M39.8,56.9l1.5-20.1a.4.4,0,0,1,.1-.3l7.7-17.6a.8.8,0,0,0-.5-1.1c-.9-.4-2.6-.8-3.5.4a47,47,0,0,0-3.4,5.5.9.9,0,0,1-1.7-.4L41.1,9.4a.8.8,0,0,0-.4-.9c-.8-.4-2.3-.9-3.3.3s-1.6,5.4-2,8.8a.9.9,0,0,1-1.7.1L30.2,6.9a.9.9,0,0,0-1.3-.5c-.9.6-2.2,1.6-2,3.2s1.7,8.6,2.3,11.1a1,1,0,0,1-.8,1.1l-8.8.5a.8.8,0,0,0-.7.4L15,29.3a1,1,0,0,0,.5,1.3,4.1,4.1,0,0,0,2.4.4c.9-.2,2.4-2,3-2.9a.9.9,0,0,1,1-.3,13.4,13.4,0,0,0,4.6.6.9.9,0,0,1,.8.4,12.3,12.3,0,0,1,1.1,3.8,1.3,1.3,0,0,1-.1.6l-2.1,3.6a.8.8,0,0,1-1,.4l-3.6-1.1-.5-.3c-.5-.7-2.2-2.8-3.6-2.9H15.7a.8.8,0,0,0-.8,1.1l1.6,5.2.2.4,4.6,4.2c.1,0,.1.1.2.3s4.5,8.4,5.4,9.3a6.5,6.5,0,0,1,1.4,3.5.8.8,0,0,0,.9.8h9.7A.9.9,0,0,0,39.8,56.9Z"/></g></symbol><symbol viewBox="0 0 57 64" id="sprinter"><defs><style>.af818b12-e9b5-4bc6-89be-f94b0e50a423 { fill: rgb(155, 214, 206); }.bb846a86-c21c-4d1e-bc08-1635daadd4b6 { fill: none; stroke: rgb(44, 88, 167); stroke-linecap: round; stroke-miterlimit: 10; stroke-width: 5px; }</style></defs><title>sprinter</title><g id="e63fd3ad-dfe2-4c6f-abe6-ef4571d53f98" data-name="BG"><rect class="af818b12-e9b5-4bc6-89be-f94b0e50a423" width="64" height="64" rx="7"/></g><g id="a11655e4-146c-4e3f-ae70-fbdc32b92aa2" data-name="Layer 2"><path class="bb846a86-c21c-4d1e-bc08-1635daadd4b6" d="M33.2,15.8l15.9,16L32.7,48.2"/><path class="bb846a86-c21c-4d1e-bc08-1635daadd4b6" d="M15.3,15.8l16,16L14.9,48.2"/></g></symbol><symbol viewBox="0 0 57 64" id="symbolauth"><defs><style>.f51fdada-2c43-4719-96c8-024b19937c8a { fill: rgb(155, 214, 206); }.ae6286d0-be04-4222-8685-b056752a0cf4 { fill: rgb(192, 118, 177); stroke: rgb(44, 88, 167); stroke-miterlimit: 10; stroke-width: 0.75px; }</style></defs><title>symbolauth</title><g id="a630c61e-5ee7-42d9-aa91-09665245cb50" data-name="BG"><rect class="f51fdada-2c43-4719-96c8-024b19937c8a" width="64" height="64" rx="7"/></g><g id="a87103cc-5eb6-4395-aeb0-9cd2aa777ae7" data-name="Layer 2"><polygon class="ae6286d0-be04-4222-8685-b056752a0cf4" points="16.2 8.1 47.8 8.1 31.3 24.9 45.5 25 31.8 40 43.4 39.5 23 58.5 35 43.1 21.8 44.2 37.7 28.7 19.7 29.8 33.2 15.6 16.2 16.4 16.2 8.1"/></g></symbol><symbol viewBox="0 0 57 64" id="symbolchemist"><defs><style>.b8cf11a0-cec4-49a7-a246-02560fff4de1 { fill: rgb(155, 214, 206); }.ba3bdbeb-c332-4c93-8669-575b1a0cb780, .f53b9e66-92de-4e66-b723-ab67451fd1b2 { fill: none; stroke-miterlimit: 10; }.f53b9e66-92de-4e66-b723-ab67451fd1b2 { stroke: rgb(192, 118, 177); }.ba3bdbeb-c332-4c93-8669-575b1a0cb780 { stroke: rgb(44, 88, 167); }.a7a85757-5194-4d36-85d3-e749064c8e7b { fill: rgb(44, 88, 167); }</style></defs><title>symbolchemist</title><g id="aa240ab1-dad6-4f42-8c9a-3f156c60b553" data-name="BG"><rect class="b8cf11a0-cec4-49a7-a246-02560fff4de1" width="64" height="64" rx="7"/></g><g id="b65e37f2-da8b-4916-b433-465cffc90685" data-name="Layer 2"><rect class="f53b9e66-92de-4e66-b723-ab67451fd1b2" x="38.1" y="11.1" width="2.2" height="3.24"/><circle class="ba3bdbeb-c332-4c93-8669-575b1a0cb780" cx="32" cy="35.8" r="19.1"/><path class="a7a85757-5194-4d36-85d3-e749064c8e7b" d="M26.7,15.6c2.3-.6,9.4-.5,11.4.3,0-3.3.2-6.9.2-6.9H26.7Z"/><line class="ba3bdbeb-c332-4c93-8669-575b1a0cb780" x1="32" y1="19" x2="32" y2="25.6"/><line class="ba3bdbeb-c332-4c93-8669-575b1a0cb780" x1="48.9" y1="35.8" x2="42.2" y2="35.8"/><line class="ba3bdbeb-c332-4c93-8669-575b1a0cb780" x1="32" y1="52.7" x2="32" y2="46"/><line class="ba3bdbeb-c332-4c93-8669-575b1a0cb780" x1="15.1" y1="35.8" x2="21.8" y2="35.8"/><line class="ba3bdbeb-c332-4c93-8669-575b1a0cb780" x1="20.1" y1="23.9" x2="22.6" y2="26.4"/><line class="ba3bdbeb-c332-4c93-8669-575b1a0cb780" x1="43.9" y1="23.9" x2="41.4" y2="26.4"/><line class="ba3bdbeb-c332-4c93-8669-575b1a0cb780" x1="43.9" y1="47.8" x2="41.4" y2="45.2"/><line class="ba3bdbeb-c332-4c93-8669-575b1a0cb780" x1="20.1" y1="47.8" x2="22.6" y2="45.2"/><circle class="a7a85757-5194-4d36-85d3-e749064c8e7b" cx="32" cy="35.8" r="2"/></g></symbol><symbol viewBox="0 0 60.942997 64" id="symbolcomplete"><defs><style>.b02bee40-21e9-454a-8ce4-707889793863 { fill: rgb(155, 214, 206); }.a1610ac6-8292-468d-a5b9-3e262ab01d6a { fill: rgb(192, 118, 177); }.a23b80af-7c76-4154-aafb-355966277762 { fill: none; stroke: rgb(44, 88, 167); stroke-miterlimit: 10; }</style></defs><title>symbolcomplete</title><g id="b1388cd9-d389-4edc-ad36-0911fbdb5941" data-name="BG"><rect class="b02bee40-21e9-454a-8ce4-707889793863" width="64" height="64" rx="7"/></g><g id="ec6c78f4-b91f-49d1-b7ca-4d7b3e70c7c9" data-name="Layer 2"><circle class="a1610ac6-8292-468d-a5b9-3e262ab01d6a" cx="32" cy="32" r="4.3"/><ellipse class="a23b80af-7c76-4154-aafb-355966277762" cx="32" cy="32" rx="28.8" ry="7.7" transform="translate(-11.7 20.3) rotate(-30)"/><ellipse class="a23b80af-7c76-4154-aafb-355966277762" cx="31.9" cy="32.1" rx="7.7" ry="28.8" transform="matrix(0.5, -0.87, 0.87, 0.5, -11.84, 43.72)"/><ellipse class="a23b80af-7c76-4154-aafb-355966277762" cx="31.9" cy="32.1" rx="7.7" ry="28.8"/></g></symbol><symbol viewBox="0 0 57 64" id="symbolprodigy"><defs><style>.fdc7ce4f-19aa-4f2c-9585-d309808fbf83 { fill: rgb(155, 214, 206); }.a955e745-350b-4000-a544-8feb3db4ae8b { fill: rgb(44, 88, 167); }.e5c25f83-8a07-46d4-9787-b63448e39d54 { fill: none; stroke: rgb(192, 118, 177); stroke-miterlimit: 10; stroke-width: 2px; }</style></defs><title>symbolprodigy</title><g id="a176ae64-4d85-4786-a343-085dc6c1f168" data-name="BG"><rect class="fdc7ce4f-19aa-4f2c-9585-d309808fbf83" width="64" height="64" rx="7"/></g><g id="a606c71e-6d21-4817-84b1-925f4eccbc0e" data-name="Layer 2"><path class="a955e745-350b-4000-a544-8feb3db4ae8b" d="M32,50.5H52.1v-2s-9.2-.1-14.4-3.3c-3.1-1.9-3.9-9.4-1.4-11.9S50.6,20.5,53.6,14.9a.9.9,0,0,0-.9-1.4H32Z"/><path class="a955e745-350b-4000-a544-8feb3db4ae8b" d="M32,50.5H11.9v-2s9.2-.1,14.4-3.3c3.1-1.9,3.9-9.4,1.4-11.9S12.9,20,10.2,14.6a.7.7,0,0,1,.7-1.1H32Z"/></g><g id="ba98685e-0721-4135-97d3-1dcc27833192" data-name="Layer 3"><line class="e5c25f83-8a07-46d4-9787-b63448e39d54" x1="28.6" y1="17.7" x2="28.6" y2="28.3"/><line class="e5c25f83-8a07-46d4-9787-b63448e39d54" x1="35.4" y1="17.7" x2="35.4" y2="28.3"/><line class="e5c25f83-8a07-46d4-9787-b63448e39d54" x1="28.6" y1="23" x2="35.4" y2="23"/></g></symbol><symbol viewBox="0 0 57 64" id="symphony"><defs><style></style></defs><title>symphony</title><g id="bc4cce17-6239-4f40-81f9-009171eaadfe" data-name="BG"><rect class="ac9f618f-3b62-4254-904c-2ecbc9addfda" width="64" height="64" rx="7"/></g><g id="b2119690-3604-40df-aaaa-2df913015ee2" data-name="Layer 2"><polyline class="b674e916-6995-4a26-8e5c-80207232be19" points="18.6 13.7 45.2 32 19.1 49.9"/><circle class="a20b5412-ed15-4bf2-9966-6b17dac1022f" cx="18.6" cy="13.7" r="3.7"/><circle class="a20b5412-ed15-4bf2-9966-6b17dac1022f" cx="45.2" cy="32" r="3.9"/><circle class="a20b5412-ed15-4bf2-9966-6b17dac1022f" cx="19.1" cy="49.9" r="4.1"/></g></symbol></svg>