<svg xmlns="http://www.w3.org/2000/svg" viewBox="0 0 64 64"><defs><style>.f73ce0fb-28b5-4061-88e5-4778787e60cb{fill:#9bd6ce;}.e20470e9-2d3c-4dce-bc0c-9a79303bf167{fill:#2c58a7;}</style></defs><title>dragmistakes</title><g id="ac50ccf9-1aad-4853-b525-a1fa755af7f9" data-name="BG"><rect class="f73ce0fb-28b5-4061-88e5-4778787e60cb" width="64" height="64" rx="7"/></g><g id="af359fbb-b578-48e8-b98a-149327caf386" data-name="Layer 2"><path class="e20470e9-2d3c-4dce-bc0c-9a79303bf167" d="M39.8,56.9l1.5-20.1a.4.4,0,0,1,.1-.3l7.7-17.6a.8.8,0,0,0-.5-1.1c-.9-.4-2.6-.8-3.5.4a47,47,0,0,0-3.4,5.5.9.9,0,0,1-1.7-.4L41.1,9.4a.8.8,0,0,0-.4-.9c-.8-.4-2.3-.9-3.3.3s-1.6,5.4-2,8.8a.9.9,0,0,1-1.7.1L30.2,6.9a.9.9,0,0,0-1.3-.5c-.9.6-2.2,1.6-2,3.2s1.7,8.6,2.3,11.1a1,1,0,0,1-.8,1.1l-8.8.5a.8.8,0,0,0-.7.4L15,29.3a1,1,0,0,0,.5,1.3,4.1,4.1,0,0,0,2.4.4c.9-.2,2.4-2,3-2.9a.9.9,0,0,1,1-.3,13.4,13.4,0,0,0,4.6.6.9.9,0,0,1,.8.4,12.3,12.3,0,0,1,1.1,3.8,1.3,1.3,0,0,1-.1.6l-2.1,3.6a.8.8,0,0,1-1,.4l-3.6-1.1-.5-.3c-.5-.7-2.2-2.8-3.6-2.9H15.7a.8.8,0,0,0-.8,1.1l1.6,5.2.2.4,4.6,4.2c.1,0,.1.1.2.3s4.5,8.4,5.4,9.3a6.5,6.5,0,0,1,1.4,3.5.8.8,0,0,0,.9.8h9.7A.9.9,0,0,0,39.8,56.9Z"/></g></svg>