<svg xmlns="http://www.w3.org/2000/svg" viewBox="0 0 64 64"><defs><style>.a85a9bab-60ee-4b8f-b441-acb638020aa7{fill:#9bd6ce;}.f0e4bc81-1b8e-403e-a468-ca6f5222520c{fill:#2c58a7;}.ba303252-7b99-48c1-ad35-178eca66a3c7{fill:#c076b1;}.b231d7b7-7558-4ed3-9cbf-12898a5d439c{fill:#275772;}.a8c6a213-648e-4c4e-b947-c5fd3d12fea1{fill:none;stroke:#a01d21;stroke-linecap:round;stroke-miterlimit:10;stroke-width:3px;}</style></defs><title>keyboard</title><g id="b9aaa7e2-4dd0-4696-af64-50e1161415f0" data-name="BG"><rect class="a85a9bab-60ee-4b8f-b441-acb638020aa7" width="64" height="64" rx="7"/></g><g id="f9a19cca-68e7-4268-9605-57f8d263b0d1" data-name="Layer 2"><rect class="f0e4bc81-1b8e-403e-a468-ca6f5222520c" x="6.3" y="18.6" width="51.5" height="26.76" rx="2.9"/><rect class="ba303252-7b99-48c1-ad35-178eca66a3c7" x="9.5" y="34.5" width="6.9" height="6.9" rx="0.8"/><rect class="ba303252-7b99-48c1-ad35-178eca66a3c7" x="9.5" y="22.6" width="6.9" height="6.9" rx="0.8"/><rect class="ba303252-7b99-48c1-ad35-178eca66a3c7" x="18.9" y="34.5" width="6.9" height="6.9" rx="0.8"/><rect class="ba303252-7b99-48c1-ad35-178eca66a3c7" x="18.9" y="22.6" width="6.9" height="6.9" rx="0.8"/><rect class="ba303252-7b99-48c1-ad35-178eca66a3c7" x="28.3" y="34.5" width="6.9" height="6.9" rx="0.8"/><rect class="ba303252-7b99-48c1-ad35-178eca66a3c7" x="28.3" y="22.6" width="6.9" height="6.9" rx="0.8"/><rect class="ba303252-7b99-48c1-ad35-178eca66a3c7" x="37.7" y="34.5" width="6.9" height="6.9" rx="0.8"/><rect class="ba303252-7b99-48c1-ad35-178eca66a3c7" x="37.7" y="22.6" width="6.9" height="6.9" rx="0.8"/><rect class="ba303252-7b99-48c1-ad35-178eca66a3c7" x="47" y="34.5" width="6.9" height="6.9" rx="0.8"/><rect class="ba303252-7b99-48c1-ad35-178eca66a3c7" x="47" y="22.6" width="6.9" height="6.9" rx="0.8"/><path class="b231d7b7-7558-4ed3-9cbf-12898a5d439c" d="M0,0"/><line class="a8c6a213-648e-4c4e-b947-c5fd3d12fea1" x1="57.7" y1="6.3" x2="6.3" y2="57.7"/><line class="a8c6a213-648e-4c4e-b947-c5fd3d12fea1" x1="6.3" y1="6.3" x2="57.7" y2="57.7"/></g></svg>