<svg id="b86f87ea-a3fc-4249-9ec2-99042fc73f17" data-name="Layer 1" xmlns="http://www.w3.org/2000/svg" viewBox="0 0 41.8 41"><defs><style>.a8b9df04-0668-4272-92b0-f64fe42a74fd{fill:#f8bfd2;}</style></defs><title>musicicon</title><circle class="a8b9df04-0668-4272-92b0-f64fe42a74fd" cx="7.7" cy="33.2" r="7.7"/><circle class="a8b9df04-0668-4272-92b0-f64fe42a74fd" cx="34.1" cy="28.4" r="7.7"/><path class="a8b9df04-0668-4272-92b0-f64fe42a74fd" d="M52.9,39.9V12.8a1.3,1.3,0,0,0-1.4-1.3L25.7,16.3a3,3,0,0,0-2.4,2.9V43.5a1.2,1.2,0,0,0,1.2,1.3h2V20.7a.5.5,0,0,1,.4-.5l21.6-4a1.1,1.1,0,0,1,1.2,1V39.3a.6.6,0,0,0,.6.6Z" transform="translate(-11.1 -11.5)"/></svg>