<svg id="b898fd8f-bb5a-4585-995c-7647e9ff76f0" data-name="Layer 1" xmlns="http://www.w3.org/2000/svg" viewBox="0 0 52.3 52.3"><defs><style>.a672e49d-1499-45e9-bfb6-5c6fc3550f1c{fill:#f8bfd2;}.af931b7b-8bd7-4875-9dbe-bfb0d76ddf67{fill:none;stroke:#b11f24;stroke-linecap:round;stroke-miterlimit:10;stroke-width:2.34px;}</style></defs><title>musiciconoff</title><circle class="a672e49d-1499-45e9-bfb6-5c6fc3550f1c" cx="12.9" cy="38.9" r="7.7"/><circle class="a672e49d-1499-45e9-bfb6-5c6fc3550f1c" cx="39.4" cy="34.1" r="7.7"/><path class="a672e49d-1499-45e9-bfb6-5c6fc3550f1c" d="M52.9,39.9V12.8a1.3,1.3,0,0,0-1.4-1.3L25.7,16.3a3,3,0,0,0-2.4,2.9V43.5a1.2,1.2,0,0,0,1.2,1.3h2V20.7a.5.5,0,0,1,.4-.5l21.6-4a1.1,1.1,0,0,1,1.2,1V39.3a.6.6,0,0,0,.6.6Z" transform="translate(-5.9 -5.9)"/><line class="af931b7b-8bd7-4875-9dbe-bfb0d76ddf67" x1="51" y1="1.2" x2="1.3" y2="51.1"/><line class="af931b7b-8bd7-4875-9dbe-bfb0d76ddf67" x1="1.2" y1="1.2" x2="51.1" y2="51.1"/></svg>