<svg xmlns="http://www.w3.org/2000/svg" viewBox="0 0 64 64"><defs><style>.ad0202ae-191b-409d-a104-ae95c8d89df9{fill:#9bd6ce;}.baaecf23-498c-471d-9dda-39cdb4d85db1,.bf1c4ca2-0e99-4235-adcb-7a6d4a42295a{fill:none;stroke:#36499c;stroke-miterlimit:10;}.baaecf23-498c-471d-9dda-39cdb4d85db1{stroke-width:2px;}.e105a7df-7d41-49e8-ba12-72f1ce31c39c{fill:#36499c;}.bf1c4ca2-0e99-4235-adcb-7a6d4a42295a{stroke-linecap:round;}</style></defs><title>nameauth</title><g id="b9adbb12-8659-4d54-be7f-fa2cb143bc69" data-name="BG"><rect class="ad0202ae-191b-409d-a104-ae95c8d89df9" width="64" height="64" rx="7"/></g><g id="bc4e9a98-4721-4f42-a0dd-f8e03eb02726" data-name="Layer 2"><g id="aa226787-1bb7-4cfd-8a29-af7a401fee87" data-name="a7309d41-5f99-43bf-bf9c-15d8a61fa6c1"><circle class="baaecf23-498c-471d-9dda-39cdb4d85db1" cx="32" cy="35.8" r="19.1"/><path class="e105a7df-7d41-49e8-ba12-72f1ce31c39c" d="M26.7,15.6c2.3-.6,9.4-.5,11.4.3,0-3.3.2-6.9.2-6.9H26.7Z"/><line class="bf1c4ca2-0e99-4235-adcb-7a6d4a42295a" x1="32" y1="19" x2="32" y2="25.6"/><line class="bf1c4ca2-0e99-4235-adcb-7a6d4a42295a" x1="48.9" y1="35.8" x2="42.2" y2="35.8"/><line class="bf1c4ca2-0e99-4235-adcb-7a6d4a42295a" x1="32" y1="52.8" x2="32" y2="46"/><line class="bf1c4ca2-0e99-4235-adcb-7a6d4a42295a" x1="15.1" y1="35.8" x2="21.8" y2="35.8"/><line class="bf1c4ca2-0e99-4235-adcb-7a6d4a42295a" x1="20.1" y1="23.9" x2="22.6" y2="26.4"/><line class="bf1c4ca2-0e99-4235-adcb-7a6d4a42295a" x1="43.9" y1="23.9" x2="41.4" y2="26.4"/><line class="bf1c4ca2-0e99-4235-adcb-7a6d4a42295a" x1="43.9" y1="47.8" x2="41.4" y2="45.3"/><line class="bf1c4ca2-0e99-4235-adcb-7a6d4a42295a" x1="20.1" y1="47.8" x2="22.6" y2="45.3"/><rect class="bf1c4ca2-0e99-4235-adcb-7a6d4a42295a" x="38.1" y="11.1" width="2.2" height="3.24"/><circle class="e105a7df-7d41-49e8-ba12-72f1ce31c39c" cx="32" cy="35.8" r="2"/></g></g></svg>