<svg id="f27df181-1c07-4088-89b5-81748e624cb5" data-name="Layer 1" xmlns="http://www.w3.org/2000/svg" viewBox="0 0 53.5 53.9"><defs><style>.f4a46642-9310-4dbe-a992-529d5be57e8e{fill:#f8bfd2;}</style></defs><title>settings</title><path class="f4a46642-9310-4dbe-a992-529d5be57e8e" d="M43.8,32A11.8,11.8,0,1,1,32,20.2,11.8,11.8,0,0,1,43.8,32Zm-8-21.6c-.5-.1,0-5.3,0-5.3H28.3s.5,5.2,0,5.3l-8.7,3.7c-.3.3-3.7-3.8-3.7-3.8L13.2,13l-2.6,2.6s4,3.4,3.7,3.8L10.6,28c-.1.5-5.4,0-5.4,0v7.5s5.3-.4,5.4,0l3.7,8.7c.3.4-3.7,3.8-3.7,3.8l2.6,2.6,2.7,2.7s3.4-4.1,3.7-3.8l8.7,4.1c.5.1,0,5.3,0,5.3h7.5s-.5-5.2,0-5.3l8.6-4.1c.4-.3,3.7,3.8,3.7,3.8l2.7-2.7L53.4,48s-4-3.4-3.8-3.8l3.8-8.7c.1-.4,5.4,0,5.4,0V28.1s-5.3.5-5.4,0l-3.1-8.7c-.3-.4,3.8-3.8,3.8-3.8l-2.7-2.7-2.6-2.6s-3.4,4.1-3.8,3.8Z" transform="translate(-5.2 -5.1)"/></svg>