<svg id="e97fb740-acbe-4b07-8d08-c594c486f273" data-name="Layer 1" xmlns="http://www.w3.org/2000/svg" viewBox="0 0 38.5 39.1"><defs><style>.aa920d9a-7a2f-4c9e-892d-11edf714bc01{fill:#f8bfd2;}.bd986e60-80e7-4b70-a325-44cafe164b5f{fill:#231f20;}.ba6f421e-41ee-495c-ae51-c1025c15d409{fill:none;stroke:#f8bfd2;stroke-miterlimit:10;stroke-width:5px;}</style></defs><title>sfxicon</title><path class="aa920d9a-7a2f-4c9e-892d-11edf714bc01" d="M14.3,38.4h4.5c.2,0,.3,0,.4.2l9.9,12.7a.6.6,0,0,0,1.1-.3V13a.6.6,0,0,0-1.1-.3L19.2,25.5H13.8a2.5,2.5,0,0,0-2.3,2.5v7.3A3.1,3.1,0,0,0,14.3,38.4Z" transform="translate(-11.5 -12.5)"/><path class="bd986e60-80e7-4b70-a325-44cafe164b5f" d="M35.3,26.5" transform="translate(-11.5 -12.5)"/><path class="ba6f421e-41ee-495c-ae51-c1025c15d409" d="M38.2,15.3A19.5,19.5,0,0,1,47.6,32c0,7.1-4.1,13.1-9.4,16.7" transform="translate(-11.5 -12.5)"/><path class="ba6f421e-41ee-495c-ae51-c1025c15d409" d="M34.9,21.2A14.3,14.3,0,0,1,40.5,32c0,4-3.3,8.9-6,10.9" transform="translate(-11.5 -12.5)"/></svg>