<svg xmlns="http://www.w3.org/2000/svg" viewBox="0 0 64 64"><defs><style>.b8cf11a0-cec4-49a7-a246-02560fff4de1{fill:#9bd6ce;}.ba3bdbeb-c332-4c93-8669-575b1a0cb780,.f53b9e66-92de-4e66-b723-ab67451fd1b2{fill:none;stroke-miterlimit:10;}.f53b9e66-92de-4e66-b723-ab67451fd1b2{stroke:#c076b1;}.ba3bdbeb-c332-4c93-8669-575b1a0cb780{stroke:#2c58a7;}.a7a85757-5194-4d36-85d3-e749064c8e7b{fill:#2c58a7;}</style></defs><title>symbolchemist</title><g id="aa240ab1-dad6-4f42-8c9a-3f156c60b553" data-name="BG"><rect class="b8cf11a0-cec4-49a7-a246-02560fff4de1" width="64" height="64" rx="7"/></g><g id="b65e37f2-da8b-4916-b433-465cffc90685" data-name="Layer 2"><rect class="f53b9e66-92de-4e66-b723-ab67451fd1b2" x="38.1" y="11.1" width="2.2" height="3.24"/><circle class="ba3bdbeb-c332-4c93-8669-575b1a0cb780" cx="32" cy="35.8" r="19.1"/><path class="a7a85757-5194-4d36-85d3-e749064c8e7b" d="M26.7,15.6c2.3-.6,9.4-.5,11.4.3,0-3.3.2-6.9.2-6.9H26.7Z"/><line class="ba3bdbeb-c332-4c93-8669-575b1a0cb780" x1="32" y1="19" x2="32" y2="25.6"/><line class="ba3bdbeb-c332-4c93-8669-575b1a0cb780" x1="48.9" y1="35.8" x2="42.2" y2="35.8"/><line class="ba3bdbeb-c332-4c93-8669-575b1a0cb780" x1="32" y1="52.7" x2="32" y2="46"/><line class="ba3bdbeb-c332-4c93-8669-575b1a0cb780" x1="15.1" y1="35.8" x2="21.8" y2="35.8"/><line class="ba3bdbeb-c332-4c93-8669-575b1a0cb780" x1="20.1" y1="23.9" x2="22.6" y2="26.4"/><line class="ba3bdbeb-c332-4c93-8669-575b1a0cb780" x1="43.9" y1="23.9" x2="41.4" y2="26.4"/><line class="ba3bdbeb-c332-4c93-8669-575b1a0cb780" x1="43.9" y1="47.8" x2="41.4" y2="45.2"/><line class="ba3bdbeb-c332-4c93-8669-575b1a0cb780" x1="20.1" y1="47.8" x2="22.6" y2="45.2"/><circle class="a7a85757-5194-4d36-85d3-e749064c8e7b" cx="32" cy="35.8" r="2"/></g></svg>