<svg xmlns="http://www.w3.org/2000/svg" viewBox="0 0 64 64"><defs><style>.fdc7ce4f-19aa-4f2c-9585-d309808fbf83{fill:#9bd6ce;}.a955e745-350b-4000-a544-8feb3db4ae8b{fill:#2c58a7;}.e5c25f83-8a07-46d4-9787-b63448e39d54{fill:none;stroke:#c076b1;stroke-miterlimit:10;stroke-width:2px;}</style></defs><title>symbolprodigy</title><g id="a176ae64-4d85-4786-a343-085dc6c1f168" data-name="BG"><rect class="fdc7ce4f-19aa-4f2c-9585-d309808fbf83" width="64" height="64" rx="7"/></g><g id="a606c71e-6d21-4817-84b1-925f4eccbc0e" data-name="Layer 2"><path class="a955e745-350b-4000-a544-8feb3db4ae8b" d="M32,50.5H52.1v-2s-9.2-.1-14.4-3.3c-3.1-1.9-3.9-9.4-1.4-11.9S50.6,20.5,53.6,14.9a.9.9,0,0,0-.9-1.4H32Z"/><path class="a955e745-350b-4000-a544-8feb3db4ae8b" d="M32,50.5H11.9v-2s9.2-.1,14.4-3.3c3.1-1.9,3.9-9.4,1.4-11.9S12.9,20,10.2,14.6a.7.7,0,0,1,.7-1.1H32Z"/></g><g id="ba98685e-0721-4135-97d3-1dcc27833192" data-name="Layer 3"><line class="e5c25f83-8a07-46d4-9787-b63448e39d54" x1="28.6" y1="17.7" x2="28.6" y2="28.3"/><line class="e5c25f83-8a07-46d4-9787-b63448e39d54" x1="35.4" y1="17.7" x2="35.4" y2="28.3"/><line class="e5c25f83-8a07-46d4-9787-b63448e39d54" x1="28.6" y1="23" x2="35.4" y2="23"/></g></svg>